<svg width="11" height="14" viewBox="0 0 11 14" fill="none" xmlns="http://www.w3.org/2000/svg">
<path d="M2 0.0234375H4.875C4.90194 0.0234375 4.92822 0.0336878 4.94727 0.0527344C4.96631 0.071781 4.97656 0.0980639 4.97656 0.125V4.5C4.97656 4.90404 5.13715 5.29145 5.42285 5.57715C5.70855 5.86285 6.09596 6.02344 6.5 6.02344H10.875C10.9019 6.02344 10.9282 6.03369 10.9473 6.05273C10.9663 6.07178 10.9766 6.09806 10.9766 6.125V12C10.9766 12.5242 10.7681 13.0268 10.3975 13.3975C10.0268 13.7681 9.52422 13.9766 9 13.9766H2C1.47578 13.9766 0.973216 13.7681 0.602539 13.3975C0.231862 13.0268 0.0234375 12.5242 0.0234375 12V2C0.0234375 1.47578 0.231862 0.973216 0.602539 0.602539C0.973216 0.231862 1.47578 0.0234375 2 0.0234375ZM3 9.97656C2.86118 9.97656 2.72805 10.0317 2.62988 10.1299C2.53172 10.228 2.47656 10.3612 2.47656 10.5C2.47656 10.6388 2.53172 10.772 2.62988 10.8701C2.72805 10.9683 2.86118 11.0234 3 11.0234H8C8.13882 11.0234 8.27195 10.9683 8.37012 10.8701C8.46828 10.772 8.52344 10.6388 8.52344 10.5C8.52344 10.3612 8.46828 10.228 8.37012 10.1299C8.27195 10.0317 8.13882 9.97656 8 9.97656H3ZM3 7.47656C2.86118 7.47656 2.72805 7.53172 2.62988 7.62988C2.53172 7.72805 2.47656 7.86118 2.47656 8C2.47656 8.13882 2.53172 8.27195 2.62988 8.37012C2.72805 8.46828 2.86118 8.52344 3 8.52344H8C8.13882 8.52344 8.27195 8.46828 8.37012 8.37012C8.46828 8.27195 8.52344 8.13882 8.52344 8C8.52344 7.86118 8.46828 7.72805 8.37012 7.62988C8.27195 7.53172 8.13882 7.47656 8 7.47656H3Z" fill="#232321" stroke="#232321" stroke-width="0.046875"/>
</svg>
